<svg width="18" height="20" viewBox="0 0 18 20" fill="none" xmlns="http://www.w3.org/2000/svg">
<path fill-rule="evenodd" clip-rule="evenodd" d="M15 2H16C17.1 2 18 2.9 18 4V18C18 19.1 17.1 20 16 20H2C0.89 20 0 19.1 0 18V4C0 2.9 0.89 2 2 2H3V1C3 0.45 3.45 0 4 0C4.55 0 5 0.45 5 1V2H13V1C13 0.45 13.45 0 14 0C14.55 0 15 0.45 15 1V2ZM5 9H13C13.55 9 14 9.45 14 10C14 10.55 13.55 11 13 11H5C4.45 11 4 10.55 4 10C4 9.45 4.45 9 5 9ZM15 18H3C2.45 18 2 17.55 2 17V7H16V17C16 17.55 15.55 18 15 18ZM5 13H10C10.55 13 11 13.45 11 14C11 14.55 10.55 15 10 15H5C4.45 15 4 14.55 4 14C4 13.45 4.45 13 5 13Z" fill="#858C94"/>
</svg>
