<svg width="28" height="24" viewBox="0 0 28 24" fill="none" xmlns="http://www.w3.org/2000/svg">
<path fill-rule="evenodd" clip-rule="evenodd" d="M24.6641 2.66667H20.4374L18.7841 0.866667C18.2907 0.32 17.5707 0 16.8241 0H11.1707C10.4241 0 9.70406 0.32 9.1974 0.866667L7.5574 2.66667H3.33073C1.86406 2.66667 0.664062 3.86667 0.664062 5.33333V21.3333C0.664062 22.8 1.86406 24 3.33073 24H24.6641C26.1307 24 27.3307 22.8 27.3307 21.3333V5.33333C27.3307 3.86667 26.1307 2.66667 24.6641 2.66667ZM13.9974 9.33333C11.7883 9.33333 9.9974 11.1242 9.9974 13.3333C9.9974 15.5425 11.7883 17.3333 13.9974 17.3333C16.2065 17.3333 17.9974 15.5425 17.9974 13.3333C17.9974 11.1242 16.2065 9.33333 13.9974 9.33333ZM7.33073 13.3333C7.33073 17.0133 10.3174 20 13.9974 20C17.6774 20 20.6641 17.0133 20.6641 13.3333C20.6641 9.65333 17.6774 6.66667 13.9974 6.66667C10.3174 6.66667 7.33073 9.65333 7.33073 13.3333Z" fill="#19C179"/>
</svg>
