<svg width="22" height="21" viewBox="0 0 22 21" fill="none" xmlns="http://www.w3.org/2000/svg">
<path fill-rule="evenodd" clip-rule="evenodd" d="M21 8.00469C18.007 8.00469 15.2116 6.51052 13.5488 4.02197L11.82 1.43469C11.42 0.844688 10.55 0.844688 10.16 1.43469L8.4201 4.03859C6.76422 6.51676 3.98048 8.00469 1 8.00469C0.45 8.00469 0 8.45469 0 9.00469C0 9.09469 0.01 9.18469 0.04 9.27469L2.58 18.5447C2.81 19.3847 3.58 20.0047 4.5 20.0047H17.5C18.42 20.0047 19.19 19.3847 19.43 18.5447L21.8982 9.53669C21.946 9.36229 21.98 9.18441 22 9.00469C22 8.45469 21.55 8.00469 21 8.00469ZM10.99 3.79469L13.8 8.00469H8.18L10.99 3.79469ZM9 14.0047C9 15.1047 9.9 16.0047 11 16.0047C12.1 16.0047 13 15.1047 13 14.0047C13 12.9047 12.1 12.0047 11 12.0047C9.9 12.0047 9 12.9047 9 14.0047Z" fill="#19C179"/>
</svg>
