<svg width="20" height="18" viewBox="0 0 20 18" fill="none" xmlns="http://www.w3.org/2000/svg">
<path fill-rule="evenodd" clip-rule="evenodd" d="M1.99732 0.5H17.9973C19.0973 0.5 19.9973 1.4 19.9973 2.5V14.5C19.9973 15.6 19.0973 16.5 17.9973 16.5H4.82519C4.29511 16.5 3.78675 16.7106 3.41192 17.0854C2.15246 18.3449 -0.000988846 17.4522 3.40668e-07 15.671L0.00731791 2.5C0.00731791 1.4 0.897318 0.5 1.99732 0.5ZM14.9973 7.5H4.99732C4.44732 7.5 3.99732 7.95 3.99732 8.5C3.99732 9.05 4.44732 9.5 4.99732 9.5H14.9973C15.5473 9.5 15.9973 9.05 15.9973 8.5C15.9973 7.95 15.5473 7.5 14.9973 7.5ZM10.9973 12.5H4.99732C4.44732 12.5 3.99732 12.05 3.99732 11.5C3.99732 10.95 4.44732 10.5 4.99732 10.5H10.9973C11.5473 10.5 11.9973 10.95 11.9973 11.5C11.9973 12.05 11.5473 12.5 10.9973 12.5ZM4.99732 6.5H14.9973C15.5473 6.5 15.9973 6.05 15.9973 5.5C15.9973 4.95 15.5473 4.5 14.9973 4.5H4.99732C4.44732 4.5 3.99732 4.95 3.99732 5.5C3.99732 6.05 4.44732 6.5 4.99732 6.5Z" fill="#19C179"/>
</svg>
