<svg width="24" height="24" viewBox="0 0 24 24" fill="none" xmlns="http://www.w3.org/2000/svg">
<path d="M11.9057 14.6241C12.6019 14.6241 13.2695 14.3475 13.7618 13.8553C14.2541 13.363 14.5307 12.6953 14.5307 11.9991C14.5307 11.9222 14.5272 11.8461 14.5206 11.7708L11.6774 14.614C11.7526 14.6206 11.8286 14.6241 11.9057 14.6241ZM20.5944 3.87941L19.5932 2.87909C19.558 2.84396 19.5103 2.82422 19.4606 2.82422C19.4109 2.82422 19.3633 2.84396 19.3281 2.87909L16.7659 5.44199C15.3525 4.71964 13.7636 4.35847 11.9994 4.35847C7.49472 4.35847 4.13378 6.70456 1.91659 11.3968C1.82747 11.5855 1.78125 11.7916 1.78125 12.0003C1.78125 12.209 1.82747 12.4151 1.91659 12.6038C2.80253 14.4699 3.86933 15.9656 5.11698 17.0909L2.63753 19.5694C2.60239 19.6046 2.58265 19.6523 2.58265 19.702C2.58265 19.7517 2.60239 19.7993 2.63753 19.8345L3.63808 20.835C3.67324 20.8702 3.72091 20.8899 3.77062 20.8899C3.82032 20.8899 3.868 20.8702 3.90316 20.835L20.5944 4.14472C20.6119 4.12731 20.6257 4.10663 20.6351 4.08386C20.6446 4.0611 20.6494 4.0367 20.6494 4.01206C20.6494 3.98742 20.6446 3.96302 20.6351 3.94026C20.6257 3.9175 20.6119 3.89682 20.5944 3.87941ZM7.78066 11.9991C7.78059 11.2866 7.96508 10.5863 8.31613 9.96626C8.66719 9.34626 9.17285 8.82776 9.78385 8.46127C10.3949 8.09479 11.0904 7.89281 11.8026 7.87501C12.5149 7.85721 13.2196 8.02421 13.8482 8.35972L12.7086 9.49925C12.2491 9.3521 11.7579 9.33438 11.2889 9.44803C10.8199 9.56168 10.3913 9.80232 10.0501 10.1435C9.70888 10.4847 9.46825 10.9133 9.3546 11.3823C9.24094 11.8513 9.25867 12.3425 9.40582 12.8021L8.26628 13.9416C7.9465 13.3441 7.77966 12.6768 7.78066 11.9991Z" fill="#858C94"/>
<path d="M22.0811 11.3949C21.2561 9.65743 20.2741 8.24063 19.1352 7.14453L15.757 10.5231C16.0417 11.2675 16.1048 12.0784 15.9387 12.8579C15.7725 13.6374 15.3842 14.3521 14.8206 14.9157C14.2571 15.4793 13.5423 15.8676 12.7628 16.0338C11.9833 16.1999 11.1724 16.1368 10.428 15.8521L7.5625 18.7175C8.89188 19.3327 10.3705 19.6403 11.9983 19.6403C16.503 19.6403 19.8639 17.2942 22.0811 12.602C22.1702 12.4133 22.2165 12.2071 22.2165 11.9984C22.2165 11.7897 22.1702 11.5836 22.0811 11.3949Z" fill="#858C94"/>
</svg>
