<svg width="44" height="43" viewBox="0 0 44 43" fill="none" xmlns="http://www.w3.org/2000/svg">
<circle cx="23" cy="22" r="17" fill="url(#paint0_linear_2360_56257)"/>
<circle cx="42.5" cy="6.5" r="1.5" fill="#FFB800" fill-opacity="0.7"/>
<circle cx="4.5" cy="2.5" r="2.5" fill="#FFB800" fill-opacity="0.8"/>
<circle cx="2.5" cy="32.5" r="1.5" fill="#FFB800" fill-opacity="0.7"/>
<circle cx="39.5" cy="38.5" r="0.5" fill="#FFB800" fill-opacity="0.7"/>
<path d="M22.0373 20.8506C20.6962 20.502 20.265 20.1417 20.265 19.5804C20.265 18.9365 20.8617 18.4875 21.86 18.4875C22.6989 18.4875 23.1183 18.8066 23.2719 19.3146C23.3428 19.5509 23.5378 19.7281 23.7859 19.7281H23.9631C24.353 19.7281 24.6307 19.3441 24.4948 18.9779C24.2467 18.2808 23.6677 17.7018 22.7462 17.4773V17.0697C22.7462 16.5794 22.3504 16.1836 21.86 16.1836C21.3697 16.1836 20.9739 16.5794 20.9739 17.0697V17.4596C19.8278 17.7077 18.9062 18.4521 18.9062 19.5923C18.9062 20.9569 20.0346 21.6363 21.6828 22.0321C23.1597 22.3865 23.4551 22.9064 23.4551 23.4558C23.4551 23.8634 23.1656 24.5133 21.86 24.5133C20.8853 24.5133 20.3831 24.1647 20.1882 23.6685C20.0996 23.4381 19.8987 23.2727 19.6565 23.2727H19.4911C19.0953 23.2727 18.8176 23.6744 18.9653 24.0406C19.3021 24.8618 20.0878 25.3462 20.9739 25.5353V25.9311C20.9739 26.4214 21.3697 26.8172 21.86 26.8172C22.3504 26.8172 22.7462 26.4214 22.7462 25.9311V25.5471C23.8981 25.3285 24.8138 24.6609 24.8138 23.4499C24.8138 21.7721 23.3783 21.1991 22.0373 20.8506Z" fill="white"/>
<circle cx="25.5" cy="1.5" r="0.5" fill="#FFB800" fill-opacity="0.7"/>
<circle cx="15" cy="42" r="1" fill="#FFB800" fill-opacity="0.7"/>
<circle cx="29.5" cy="41.5" r="0.5" fill="#FFB800" fill-opacity="0.7"/>
<circle cx="40.5" cy="26.5" r="0.5" fill="#FFB800" fill-opacity="0.7"/>
<circle cx="0.5" cy="18.5" r="0.5" fill="#FFB800" fill-opacity="0.7"/>
<defs>
<linearGradient id="paint0_linear_2360_56257" x1="40" y1="39.0826" x2="6" y2="5.08259" gradientUnits="userSpaceOnUse">
<stop stop-color="#FFB800"/>
<stop offset="1" stop-color="#FFDA7B"/>
</linearGradient>
</defs>
</svg>
