<svg width="14" height="15" viewBox="0 0 14 15" fill="none" xmlns="http://www.w3.org/2000/svg">
<path fill-rule="evenodd" clip-rule="evenodd" d="M12.3213 7.4974C12.3213 7.73823 12.3 7.9649 12.2717 8.19156L13.7663 9.36031C13.9009 9.46656 13.9363 9.65781 13.8513 9.81365L12.4346 12.2645C12.3496 12.4203 12.1655 12.4841 12.0025 12.4203L10.2388 11.712C9.87046 11.9882 9.4738 12.2291 9.04171 12.4061L8.77255 14.2832C8.7513 14.4532 8.60255 14.5807 8.42546 14.5807H5.59213C5.41505 14.5807 5.2663 14.4532 5.24505 14.2832L4.97588 12.4061C4.5438 12.2291 4.14713 11.9953 3.7788 11.712L2.01505 12.4203C1.85921 12.477 1.66796 12.4203 1.58296 12.2645L0.166297 9.81365C0.0812974 9.65781 0.116714 9.46656 0.251297 9.36031L1.74588 8.19156C1.71755 7.9649 1.6963 7.73115 1.6963 7.4974C1.6963 7.26365 1.71755 7.0299 1.74588 6.80323L0.251297 5.63448C0.116714 5.52823 0.0742141 5.33698 0.166297 5.18115L1.58296 2.73031C1.66796 2.57448 1.85213 2.51073 2.01505 2.57448L3.7788 3.28281C4.14713 3.00656 4.5438 2.76573 4.97588 2.58865L5.24505 0.711563C5.2663 0.541563 5.41505 0.414062 5.59213 0.414062H8.42546C8.60255 0.414062 8.7513 0.541563 8.77255 0.711563L9.04171 2.58865C9.4738 2.76573 9.87046 2.99948 10.2388 3.28281L12.0025 2.57448C12.1584 2.51781 12.3496 2.57448 12.4346 2.73031L13.8513 5.18115C13.9363 5.33698 13.9009 5.52823 13.7663 5.63448L12.2717 6.80323C12.3 7.0299 12.3213 7.25656 12.3213 7.4974ZM4.52809 7.49572C4.52809 8.8628 5.64018 9.97489 7.00726 9.97489C8.37434 9.97489 9.48643 8.8628 9.48643 7.49572C9.48643 6.12864 8.37434 5.01655 7.00726 5.01655C5.64018 5.01655 4.52809 6.12864 4.52809 7.49572Z" fill="#19C179"/>
</svg>
