<svg width="28" height="22" viewBox="0 0 28 22" fill="none" xmlns="http://www.w3.org/2000/svg">
<path fill-rule="evenodd" clip-rule="evenodd" d="M3.33073 0.332031H24.6641C26.1307 0.332031 27.3307 1.53203 27.3307 2.9987V18.9987C27.3307 20.4654 26.1307 21.6654 24.6641 21.6654H3.33073C1.86406 21.6654 0.664062 20.4654 0.664062 18.9987V2.9987C0.664062 1.53203 1.86406 0.332031 3.33073 0.332031ZM15.4107 11.452L24.1307 5.9987C24.4641 5.78536 24.6641 5.42536 24.6641 5.0387C24.6641 4.14536 23.6907 3.61203 22.9307 4.0787L13.9974 9.66536L5.06406 4.0787C4.30406 3.61203 3.33073 4.14536 3.33073 5.0387C3.33073 5.42536 3.53073 5.78536 3.86406 5.9987L12.5841 11.452C13.4507 11.9987 14.5441 11.9987 15.4107 11.452Z" fill="#19C179"/>
</svg>
