<svg width="42" height="36" viewBox="0 0 42 36" fill="none" xmlns="http://www.w3.org/2000/svg">
<path fill-rule="evenodd" clip-rule="evenodd" d="M21.0004 4.53287C24.5204 0.412871 31.0404 -1.26713 36.3204 2.33287C39.1204 4.25287 40.8804 7.49287 41.0004 10.8929C41.2604 18.6529 34.4004 24.8729 23.9004 34.3929L23.6804 34.5929C22.1604 35.9929 19.8204 35.9929 18.3004 34.6129L18.1004 34.4329L17.9796 34.3231C7.54769 24.8451 0.721502 18.6431 1.00043 10.9129C1.12043 7.49287 2.88043 4.25287 5.68043 2.33287C10.9604 -1.28713 17.4804 0.412871 21.0004 4.53287ZM21.0004 31.6529L21.2004 31.4529C30.7204 22.8329 37.0004 17.1329 37.0004 11.3529C37.0004 7.35287 34.0004 4.35287 30.0004 4.35287C26.9204 4.35287 23.9204 6.33287 22.8804 9.07287H19.1404C18.0804 6.33287 15.0804 4.35287 12.0004 4.35287C8.00043 4.35287 5.00043 7.35287 5.00043 11.3529C5.00043 17.1329 11.2804 22.8329 20.8004 31.4529L21.0004 31.6529Z" fill="#19C179"/>
</svg>
