<svg width="14" height="12" viewBox="0 0 14 12" fill="none" xmlns="http://www.w3.org/2000/svg">
<path fill-rule="evenodd" clip-rule="evenodd" d="M8.9891 3.78943L12.4174 4.08693C13.0408 4.13651 13.2887 4.91568 12.8141 5.32651L10.2145 7.57901L10.9937 10.9294C11.1353 11.5386 10.4766 12.0203 9.93826 11.6944L6.99868 9.91651L4.05909 11.6873C3.52076 12.0132 2.86201 11.5315 3.00368 10.9223L3.78284 7.57901L1.18326 5.32651C0.708678 4.91568 0.963678 4.13651 1.58701 4.08693L5.00826 3.79651L6.34701 0.637344C6.58784 0.0635938 7.40951 0.0635938 7.65035 0.637344L8.9891 3.78943ZM6.99692 2.00258V8.59008L9.66734 10.2051L8.95901 7.17341L11.3107 5.13341L8.20817 4.86425L6.99692 2.00258Z" fill="#19C179
"/>
</svg>
