<svg width="20" height="17" viewBox="0 0 20 17" fill="none" xmlns="http://www.w3.org/2000/svg">
<path d="M7.99473 15.8269V12.8269C7.99473 11.7223 8.89016 10.8269 9.99473 10.8269C11.0993 10.8269 11.9947 11.7223 11.9947 12.8269V15.8269C11.9947 16.3769 12.4447 16.8269 12.9947 16.8269H15.9947C16.5447 16.8269 16.9947 16.3769 16.9947 15.8269V10.5269C16.9947 9.58799 17.7558 8.82687 18.6947 8.82687C19.1547 8.82687 19.3747 8.25688 19.0247 7.95687L10.6647 0.426875C10.2847 0.086875 9.70473 0.086875 9.32473 0.426875L0.964727 7.95687C0.624727 8.25688 0.834727 8.82687 1.29473 8.82687C2.23361 8.82687 2.99473 9.58799 2.99473 10.5269V15.8269C2.99473 16.3769 3.44473 16.8269 3.99473 16.8269H6.99473C7.54473 16.8269 7.99473 16.3769 7.99473 15.8269Z" fill="#19C179"/>
</svg>
