<svg width="22" height="22" viewBox="0 0 22 22" fill="none" xmlns="http://www.w3.org/2000/svg">
<path fill-rule="evenodd" clip-rule="evenodd" d="M19 4H9.88L9 1H3C1.9 1 1 1.9 1 3V16C1 17.1 1.9 18 3 18H10L11 21H19C20.1 21 21 20.1 21 19V6C21 4.9 20.1 4 19 4ZM6.17 13.59C3.92 13.59 2.08 11.76 2.08 9.5C2.08 7.24 3.91 5.41 6.17 5.41C7.21 5.41 8.16 5.78 8.91 6.48L8.98 6.54L7.75 7.72L7.69 7.67C7.4 7.4 6.91 7.08 6.17 7.08C4.86 7.08 3.79 8.17 3.79 9.5C3.79 10.83 4.86 11.92 6.17 11.92C7.54 11.92 8.13 11.05 8.29 10.46H6.08V8.91H10.03L10.04 8.98C10.08 9.19 10.09 9.38 10.09 9.59C10.09 11.94 8.48 13.59 6.17 13.59ZM13.39 13.58C12.94 13.06 12.53 12.48 12.2 11.88L12.85 14.11L13.39 13.58ZM12.97 11.12H11.98L11.67 10.08H15.66C15.66 10.08 15.32 11.39 14.1 12.82C13.58 12.2 13.21 11.59 12.97 11.12ZM19 20C19.55 20 20 19.55 20 19V6C20 5.45 19.55 5 19 5H10.18L11.36 9.04H13.32V8H14.36V9.04H18V10.08H16.73C16.41 11.34 15.71 12.56 14.81 13.59L17.52 16.27L16.79 17L14.11 14.31L13.19 15.23L14 18L12 20H19Z" fill="#19C179"/>
<path d="M9.88 4L9.40022 4.14074L9.5056 4.5H9.88V4ZM9 1L9.47978 0.859263L9.3744 0.5H9V1ZM10 18L10.4743 17.8419L10.3604 17.5H10V18ZM11 21L10.5257 21.1581L10.6396 21.5H11V21ZM8.91 6.48L8.56884 6.84553L8.57657 6.85274L8.5846 6.85963L8.91 6.48ZM8.98 6.54L9.32614 6.90081L9.72397 6.51915L9.3054 6.16037L8.98 6.54ZM7.75 7.72L7.42991 8.10411L7.77345 8.39039L8.09614 8.08081L7.75 7.72ZM7.69 7.67L7.34929 8.03595L7.35935 8.04531L7.36991 8.05411L7.69 7.67ZM8.29 10.46L8.77257 10.5909L8.94365 9.96H8.29V10.46ZM6.08 10.46H5.58V10.96H6.08V10.46ZM6.08 8.91V8.41H5.58V8.91H6.08ZM10.03 8.91L10.525 8.83929L10.4636 8.41H10.03V8.91ZM10.04 8.98L9.54503 9.05071L9.54666 9.06218L9.54883 9.07356L10.04 8.98ZM12.2 11.88L12.6381 11.639L11.72 12.0199L12.2 11.88ZM13.39 13.58L13.7402 13.9368L14.0754 13.6079L13.7681 13.2528L13.39 13.58ZM12.85 14.11L12.37 14.2499L12.6038 15.0522L13.2002 14.4668L12.85 14.11ZM11.98 11.12L11.5008 11.2628L11.6073 11.62H11.98V11.12ZM12.97 11.12L13.4153 10.8926L13.2761 10.62H12.97V11.12ZM11.67 10.08V9.58H10.9992L11.1908 10.2228L11.67 10.08ZM15.66 10.08L16.144 10.2056L16.3063 9.58H15.66V10.08ZM14.1 12.82L13.7169 13.1413L14.0967 13.5942L14.4804 13.1445L14.1 12.82ZM10.18 5V4.5H9.51307L9.70005 5.14018L10.18 5ZM11.36 9.04L10.8801 9.18018L10.9851 9.54H11.36V9.04ZM13.32 9.04V9.54H13.82V9.04H13.32ZM13.32 8V7.5H12.82V8H13.32ZM14.36 8H14.86V7.5H14.36V8ZM14.36 9.04H13.86V9.54H14.36V9.04ZM18 9.04H18.5V8.54H18V9.04ZM18 10.08V10.58H18.5V10.08H18ZM16.73 10.08V9.58H16.3411L16.2454 9.95692L16.73 10.08ZM14.81 13.59L14.4335 13.261L14.1242 13.615L14.4584 13.9455L14.81 13.59ZM17.52 16.27L17.8736 16.6236L18.2291 16.268L17.8716 15.9145L17.52 16.27ZM16.79 17L16.4358 17.3529L16.7893 17.7078L17.1436 17.3536L16.79 17ZM14.11 14.31L14.4642 13.9571L14.1107 13.6022L13.7564 13.9564L14.11 14.31ZM13.19 15.23L12.8364 14.8764L12.6269 15.086L12.7101 15.3703L13.19 15.23ZM14 18L14.3536 18.3536L14.5631 18.144L14.4799 17.8597L14 18ZM12 20L11.6464 19.6464L10.7929 20.5H12V20ZM9.88 4.5H19V3.5H9.88V4.5ZM8.52022 1.14074L9.40022 4.14074L10.3598 3.85926L9.47978 0.859263L8.52022 1.14074ZM3 1.5H9V0.5H3V1.5ZM1.5 3C1.5 2.17614 2.17614 1.5 3 1.5V0.5C1.62386 0.5 0.5 1.62386 0.5 3H1.5ZM1.5 16V3H0.5V16H1.5ZM3 17.5C2.17614 17.5 1.5 16.8239 1.5 16H0.5C0.5 17.3761 1.62386 18.5 3 18.5V17.5ZM10 17.5H3V18.5H10V17.5ZM11.4743 20.8419L10.4743 17.8419L9.52566 18.1581L10.5257 21.1581L11.4743 20.8419ZM19 20.5H11V21.5H19V20.5ZM20.5 19C20.5 19.8239 19.8239 20.5 19 20.5V21.5C20.3761 21.5 21.5 20.3761 21.5 19H20.5ZM20.5 6V19H21.5V6H20.5ZM19 4.5C19.8239 4.5 20.5 5.17614 20.5 6H21.5C21.5 4.62386 20.3761 3.5 19 3.5V4.5ZM1.58 9.5C1.58 12.0369 3.64465 14.09 6.17 14.09V13.09C4.19535 13.09 2.58 11.4831 2.58 9.5H1.58ZM6.17 4.91C3.63386 4.91 1.58 6.96386 1.58 9.5H2.58C2.58 7.51614 4.18614 5.91 6.17 5.91V4.91ZM9.25116 6.11447C8.4068 5.32641 7.3342 4.91 6.17 4.91V5.91C7.0858 5.91 7.9132 6.23359 8.56884 6.84553L9.25116 6.11447ZM9.3054 6.16037L9.23539 6.10037L8.5846 6.85963L8.6546 6.91963L9.3054 6.16037ZM8.09614 8.08081L9.32614 6.90081L8.63386 6.17919L7.40386 7.35919L8.09614 8.08081ZM7.36991 8.05411L7.42991 8.10411L8.07009 7.33589L8.01009 7.28589L7.36991 8.05411ZM6.17 7.58C6.74986 7.58 7.12379 7.826 7.34929 8.03595L8.03071 7.30405C7.67621 6.974 7.07014 6.58 6.17 6.58V7.58ZM4.29 9.5C4.29 8.43798 5.14423 7.58 6.17 7.58V6.58C4.57577 6.58 3.29 7.90202 3.29 9.5H4.29ZM6.17 11.42C5.14423 11.42 4.29 10.562 4.29 9.5H3.29C3.29 11.098 4.57577 12.42 6.17 12.42V11.42ZM7.80743 10.3291C7.6935 10.7493 7.2681 11.42 6.17 11.42V12.42C7.8119 12.42 8.5665 11.3507 8.77257 10.5909L7.80743 10.3291ZM6.08 10.96H8.29V9.96H6.08V10.96ZM5.58 8.91V10.46H6.58V8.91H5.58ZM10.03 8.41H6.08V9.41H10.03V8.41ZM10.535 8.90929L10.525 8.83929L9.53503 8.98071L9.54503 9.05071L10.535 8.90929ZM10.59 9.59C10.59 9.36281 10.5792 9.13865 10.5312 8.88644L9.54883 9.07356C9.58079 9.24135 9.59 9.39719 9.59 9.59H10.59ZM6.17 14.09C7.44799 14.09 8.56054 13.6312 9.35358 12.821C10.1458 12.0116 10.59 10.8815 10.59 9.59H9.59C9.59 10.6485 9.22919 11.5184 8.63892 12.1215C8.04946 12.7238 7.20201 13.09 6.17 13.09V14.09ZM11.7619 12.121C12.11 12.7539 12.5406 13.3626 13.0119 13.9072L13.7681 13.2528C13.3394 12.7574 12.95 12.2061 12.6381 11.639L11.7619 12.121ZM13.33 13.9701L12.68 11.7401L11.72 12.0199L12.37 14.2499L13.33 13.9701ZM13.0398 13.2232L12.4998 13.7532L13.2002 14.4668L13.7402 13.9368L13.0398 13.2232ZM11.98 11.62H12.97V10.62H11.98V11.62ZM11.1908 10.2228L11.5008 11.2628L12.4592 10.9772L12.1492 9.93717L11.1908 10.2228ZM15.66 9.58H11.67V10.58H15.66V9.58ZM14.4804 13.1445C15.1243 12.3898 15.5372 11.6654 15.7902 11.1261C15.9167 10.8563 16.0036 10.6321 16.0596 10.4726C16.0876 10.3928 16.1079 10.3291 16.1216 10.2838C16.1284 10.2612 16.1336 10.2432 16.1373 10.23C16.1392 10.2235 16.1406 10.2181 16.1417 10.2141C16.1423 10.212 16.1427 10.2103 16.1431 10.2089C16.1433 10.2082 16.1435 10.2075 16.1436 10.207C16.1437 10.2067 16.1437 10.2065 16.1438 10.2062C16.1438 10.2061 16.1439 10.206 16.1439 10.2059C16.1439 10.2058 16.144 10.2056 15.66 10.08C15.176 9.95439 15.1761 9.95425 15.1761 9.95412C15.1761 9.95408 15.1761 9.95395 15.1762 9.95388C15.1762 9.95372 15.1762 9.95359 15.1763 9.95348C15.1763 9.95325 15.1764 9.95311 15.1764 9.95304C15.1764 9.9529 15.1764 9.95307 15.1762 9.95355C15.176 9.95451 15.1754 9.9567 15.1744 9.96008C15.1726 9.96683 15.1693 9.97834 15.1644 9.99432C15.1548 10.0263 15.139 10.0761 15.116 10.1415C15.0701 10.2723 14.9958 10.465 14.8848 10.7014C14.6628 11.1746 14.2957 11.8202 13.7196 12.4955L14.4804 13.1445ZM12.5247 11.3474C12.7789 11.8453 13.1689 12.488 13.7169 13.1413L14.4831 12.4987C13.9911 11.912 13.6411 11.3347 13.4153 10.8926L12.5247 11.3474ZM19.5 19C19.5 19.2739 19.2739 19.5 19 19.5V20.5C19.8261 20.5 20.5 19.8261 20.5 19H19.5ZM19.5 6V19H20.5V6H19.5ZM19 5.5C19.2739 5.5 19.5 5.72614 19.5 6H20.5C20.5 5.17386 19.8261 4.5 19 4.5V5.5ZM10.18 5.5H19V4.5H10.18V5.5ZM11.8399 8.89982L10.6599 4.85982L9.70005 5.14018L10.8801 9.18018L11.8399 8.89982ZM13.32 8.54H11.36V9.54H13.32V8.54ZM12.82 8V9.04H13.82V8H12.82ZM14.36 7.5H13.32V8.5H14.36V7.5ZM14.86 9.04V8H13.86V9.04H14.86ZM18 8.54H14.36V9.54H18V8.54ZM18.5 10.08V9.04H17.5V10.08H18.5ZM16.73 10.58H18V9.58H16.73V10.58ZM15.1865 13.919C16.1277 12.8419 16.8717 11.5535 17.2146 10.2031L16.2454 9.95692C15.9483 11.1265 15.2924 12.2781 14.4335 13.261L15.1865 13.919ZM17.8716 15.9145L15.1616 13.2345L14.4584 13.9455L17.1684 16.6255L17.8716 15.9145ZM17.1436 17.3536L17.8736 16.6236L17.1664 15.9164L16.4364 16.6464L17.1436 17.3536ZM13.7558 14.6629L16.4358 17.3529L17.1442 16.6471L14.4642 13.9571L13.7558 14.6629ZM13.5436 15.5836L14.4636 14.6636L13.7564 13.9564L12.8364 14.8764L13.5436 15.5836ZM14.4799 17.8597L13.6699 15.0897L12.7101 15.3703L13.5201 18.1403L14.4799 17.8597ZM12.3536 20.3536L14.3536 18.3536L13.6464 17.6464L11.6464 19.6464L12.3536 20.3536ZM19 19.5H12V20.5H19V19.5Z" fill="#19C179
"/>
</svg>
