<svg width="200" height="192" viewBox="0 0 200 192" fill="none" xmlns="http://www.w3.org/2000/svg">
<path d="M64 75.5347C64 61.4323 75.4323 50 89.5347 50H118.465C132.568 50 144 61.4323 144 75.5347V104.465C144 118.568 132.568 130 118.465 130H89.5347C75.4323 130 64 118.568 64 104.465V75.5347Z" fill="url(#paint0_linear_2346_54149)"/>
<path d="M86.0284 94.4514L79.1849 83.339C77.4855 80.5795 78.5591 75.4793 82.2217 72.188C83.2952 71.2366 85.0478 71.4733 85.7892 72.6771L103.998 102.245L122.208 72.6771C122.949 71.4733 124.702 71.2366 125.775 72.188C129.438 75.4793 130.511 80.5795 128.812 83.339L121.968 94.4514C120.714 96.4887 117.909 97.1932 115.736 96.017L113.761 94.9477L106.474 106.779C106.496 107.54 106.085 108.29 105.336 108.695C104.917 108.922 104.45 109.009 103.998 108.971C103.547 109.009 103.08 108.922 102.661 108.695C101.912 108.29 101.501 107.54 101.523 106.779L94.2362 94.9477L92.2606 96.017C90.0876 97.1932 87.283 96.4887 86.0284 94.4514Z" fill="white"/>
<path d="M77.6512 158L72.4421 141.3H75.5829L77.9321 149.701C78.2044 150.655 78.4428 151.557 78.647 152.408C78.8683 153.259 79.1237 154.17 79.4131 155.14H79.5152C79.8046 154.17 80.0514 153.259 80.2557 152.408C80.477 151.557 80.7153 150.655 80.9707 149.701L83.2943 141.3H86.333L81.1494 158H77.6512ZM93.0366 158.306C92.1684 158.306 91.3598 158.162 90.6108 157.872C89.8618 157.566 89.2064 157.132 88.6447 156.57C88.0829 156.008 87.6403 155.327 87.3169 154.527C87.0104 153.71 86.8572 152.782 86.8572 151.744C86.8572 150.723 87.019 149.803 87.3424 148.986C87.6658 148.169 88.0914 147.48 88.6191 146.918C89.1639 146.356 89.7852 145.922 90.4832 145.616C91.1811 145.309 91.8961 145.156 92.6281 145.156C93.4792 145.156 94.2282 145.301 94.8751 145.59C95.522 145.88 96.0582 146.288 96.4838 146.816C96.9264 147.344 97.2584 147.973 97.4797 148.705C97.701 149.437 97.8116 150.237 97.8116 151.106C97.8116 151.395 97.7946 151.667 97.7605 151.923C97.7435 152.178 97.718 152.382 97.6839 152.536H89.7171C89.8533 153.659 90.2448 154.527 90.8917 155.14C91.5556 155.736 92.3983 156.034 93.4196 156.034C93.9644 156.034 94.4666 155.957 94.9262 155.804C95.4028 155.634 95.871 155.404 96.3306 155.115L97.3265 156.953C96.7306 157.345 96.0667 157.668 95.3347 157.923C94.6028 158.179 93.8367 158.306 93.0366 158.306ZM89.6916 150.544H95.2581C95.2581 149.574 95.0454 148.816 94.6198 148.271C94.2112 147.71 93.5729 147.429 92.7047 147.429C91.9557 147.429 91.3003 147.693 90.7385 148.22C90.1767 148.748 89.8278 149.522 89.6916 150.544ZM100.616 158V145.462H103.042L103.246 147.684H103.348C103.791 146.867 104.327 146.246 104.957 145.82C105.587 145.377 106.234 145.156 106.898 145.156C107.494 145.156 107.97 145.241 108.328 145.411L107.817 147.965C107.596 147.897 107.391 147.846 107.204 147.812C107.017 147.778 106.787 147.761 106.515 147.761C106.021 147.761 105.502 147.956 104.957 148.348C104.412 148.722 103.944 149.386 103.553 150.34V158H100.616ZM114.284 158.306C112.701 158.306 111.442 157.736 110.505 156.596C109.586 155.438 109.126 153.821 109.126 151.744C109.126 150.723 109.271 149.803 109.561 148.986C109.867 148.169 110.267 147.48 110.761 146.918C111.254 146.356 111.816 145.922 112.446 145.616C113.093 145.309 113.757 145.156 114.438 145.156C115.153 145.156 115.757 145.284 116.251 145.539C116.744 145.777 117.238 146.109 117.732 146.535L117.63 144.518V139.973H120.566V158H118.14L117.936 156.647H117.834C117.374 157.106 116.838 157.498 116.225 157.821C115.612 158.145 114.965 158.306 114.284 158.306ZM114.999 155.881C115.936 155.881 116.812 155.412 117.63 154.476V148.629C117.187 148.237 116.753 147.965 116.327 147.812C115.919 147.658 115.502 147.582 115.076 147.582C114.259 147.582 113.569 147.939 113.008 148.654C112.446 149.369 112.165 150.391 112.165 151.718C112.165 153.08 112.403 154.119 112.88 154.834C113.374 155.532 114.08 155.881 114.999 155.881ZM129.438 158.306C128.655 158.306 127.906 158.162 127.191 157.872C126.476 157.583 125.838 157.157 125.276 156.596C124.731 156.034 124.297 155.344 123.974 154.527C123.65 153.71 123.489 152.782 123.489 151.744C123.489 150.706 123.65 149.778 123.974 148.961C124.297 148.144 124.731 147.454 125.276 146.892C125.838 146.331 126.476 145.905 127.191 145.616C127.906 145.309 128.655 145.156 129.438 145.156C130.221 145.156 130.97 145.309 131.685 145.616C132.417 145.905 133.056 146.331 133.6 146.892C134.145 147.454 134.579 148.144 134.903 148.961C135.243 149.778 135.413 150.706 135.413 151.744C135.413 152.782 135.243 153.71 134.903 154.527C134.579 155.344 134.145 156.034 133.6 156.596C133.056 157.157 132.417 157.583 131.685 157.872C130.97 158.162 130.221 158.306 129.438 158.306ZM129.438 155.906C130.357 155.906 131.081 155.532 131.609 154.783C132.136 154.017 132.4 153.004 132.4 151.744C132.4 150.467 132.136 149.454 131.609 148.705C131.081 147.939 130.357 147.556 129.438 147.556C128.519 147.556 127.795 147.939 127.268 148.705C126.757 149.454 126.502 150.467 126.502 151.744C126.502 153.004 126.757 154.017 127.268 154.783C127.795 155.532 128.519 155.906 129.438 155.906Z" fill="#19C179"/>
<path d="M25.0604 175.047C20.2949 179.369 12.0217 178.993 7.78898 174.325C3.55629 169.658 2.36292 164.391 7.12844 160.069C11.894 155.748 16.3061 156.785 20.5388 161.452C24.7715 166.12 29.8259 170.726 25.0604 175.047Z" fill="#19C179" fill-opacity="0.2"/>
<path d="M76.0983 22.5825C72.6614 25.6993 67.7384 26.5792 65.8126 24.4556C63.8869 22.332 63.8674 19.461 67.3044 16.3442C70.7413 13.2274 73.2559 13.2395 75.1816 15.3631C77.1074 17.4866 79.5353 19.4657 76.0983 22.5825Z" fill="#19C179" fill-opacity="0.2"/>
<path d="M193.583 179.778C190.146 182.895 185.223 183.774 183.297 181.651C181.371 179.527 181.352 176.656 184.789 173.54C188.226 170.423 190.74 170.435 192.666 172.558C194.592 174.682 197.02 176.661 193.583 179.778Z" fill="#19C179" fill-opacity="0.2"/>
<path d="M44.4419 103.388C45.1881 105.796 44.4917 108.423 43.0039 108.884C41.5161 109.345 40.0977 108.695 39.3514 106.288C38.6051 103.88 39.1881 102.644 40.6759 102.183C42.1637 101.722 43.6956 100.98 44.4419 103.388Z" fill="#19C179" fill-opacity="0.2"/>
<path d="M98.3012 185.701C99.0475 188.109 98.3511 190.735 96.8633 191.196C95.3755 191.657 93.9571 191.008 93.2108 188.6C92.4645 186.192 93.0475 184.956 94.5353 184.495C96.0231 184.034 97.555 183.293 98.3012 185.701Z" fill="#19C179" fill-opacity="0.2"/>
<path d="M11.9296 50.2731C10.618 51.6694 7.55505 49.9825 5.96732 48.3947C4.37959 46.807 2.37043 43.6804 4.68407 41.3667C6.99771 39.0531 10.0946 42.255 11.6824 43.8427C13.2701 45.4305 13.2412 48.8768 11.9296 50.2731Z" fill="#19C179" fill-opacity="0.5"/>
<path d="M175.35 63.1291C174.83 56.5585 180.353 50.0823 186.828 49.5697C193.304 49.0572 198.352 51.3854 198.872 57.956C199.392 64.5266 195.764 67.4567 189.289 67.9692C182.813 68.4818 175.87 69.6998 175.35 63.1291Z" fill="#19C179" fill-opacity="0.6"/>
<path d="M136.998 2.0848C137.617 4.39694 136.073 7.07437 133.794 7.68493C131.515 8.29549 129.559 7.79732 128.939 5.48518C128.32 3.17303 129.422 1.88713 131.701 1.27656C133.979 0.666 136.378 -0.22735 136.998 2.0848Z" fill="#19C179" fill-opacity="0.1"/>
<defs>
<linearGradient id="paint0_linear_2346_54149" x1="144" y1="130.194" x2="64" y2="50.1943" gradientUnits="userSpaceOnUse">
<stop stop-color="#19C179"/>
<stop offset="1" stop-color="#4FE58A"/>
</linearGradient>
</defs>
</svg>
