<svg width="100" height="100" viewBox="0 0 100 100" fill="none" xmlns="http://www.w3.org/2000/svg">
<path d="M0 32C0 14.3269 14.3269 0 32 0H68C85.6731 0 100 14.3269 100 32V68C100 85.6731 85.6731 100 68 100H32C14.3269 100 0 85.6731 0 68V32Z" fill="url(#paint0_linear_2346_53141)"/>
<path d="M27.5375 55.5623L18.9831 41.6718C16.8588 38.2224 18.2008 31.8472 22.7791 27.7331C24.121 26.5438 26.3117 26.8397 27.2384 28.3445L50 65.3047L72.7616 28.3445C73.6883 26.8397 75.879 26.5438 77.2209 27.7331C81.7992 31.8472 83.1412 38.2224 81.0169 41.6718L72.4625 55.5623C70.8942 58.1089 67.3886 58.9896 64.6722 57.5193L62.2028 56.1827L53.0949 70.9721C53.1221 71.9227 52.6081 72.8603 51.6724 73.3667C51.1476 73.6508 50.5639 73.7593 50 73.7122C49.436 73.7593 48.8524 73.6508 48.3276 73.3667C47.3919 72.8603 46.8779 71.9227 46.9051 70.9721L37.7972 56.1827L35.3278 57.5193C32.6114 58.9896 29.1058 58.1089 27.5375 55.5623Z" fill="white"/>
<defs>
<linearGradient id="paint0_linear_2346_53141" x1="100" y1="100.243" x2="0" y2="0.242925" gradientUnits="userSpaceOnUse">
<stop stop-color="#19C179"/>
<stop offset="1" stop-color="#4FE58A"/>
</linearGradient>
</defs>
</svg>
