<svg width="18" height="18" viewBox="0 0 18 18" fill="none" xmlns="http://www.w3.org/2000/svg">
<path fill-rule="evenodd" clip-rule="evenodd" d="M12.1872 11.4733H12.9772L17.2172 15.7333C17.6272 16.1433 17.6272 16.8133 17.2172 17.2233C16.8072 17.6333 16.1372 17.6333 15.7272 17.2233L11.4772 12.9733V12.1833L11.2072 11.9033C9.80719 13.1033 7.89719 13.7233 5.86719 13.3833C3.08719 12.9133 0.867188 10.5933 0.527188 7.79328C0.00718811 3.56328 3.56719 0.00328186 7.79719 0.523282C10.5972 0.863282 12.9172 3.08328 13.3872 5.86328C13.7272 7.89328 13.1072 9.80328 11.9072 11.2033L12.1872 11.4733ZM2.47719 6.97328C2.47719 9.46328 4.48719 11.4733 6.97719 11.4733C9.46719 11.4733 11.4772 9.46328 11.4772 6.97328C11.4772 4.48328 9.46719 2.47328 6.97719 2.47328C4.48719 2.47328 2.47719 4.48328 2.47719 6.97328Z" fill="#858C94"/>
</svg>
