<svg width="20" height="26" viewBox="0 0 20 26" fill="none" xmlns="http://www.w3.org/2000/svg">
<path fill-rule="evenodd" clip-rule="evenodd" d="M0.664062 9.35287C0.664062 4.19286 4.8374 0.0195312 9.9974 0.0195312C15.1574 0.0195312 19.3307 4.19286 19.3307 9.35287C19.3307 14.9129 13.4374 22.5795 11.0241 25.4995C10.4907 26.1395 9.5174 26.1395 8.98406 25.4995C6.5574 22.5795 0.664062 14.9129 0.664062 9.35287ZM6.66406 9.35286C6.66406 11.1929 8.1574 12.6862 9.9974 12.6862C11.8374 12.6862 13.3307 11.1929 13.3307 9.35286C13.3307 7.51286 11.8374 6.01953 9.9974 6.01953C8.1574 6.01953 6.66406 7.51286 6.66406 9.35286Z" fill="#19C179"/>
</svg>
