<svg width="18" height="13" viewBox="0 0 18 13" fill="none" xmlns="http://www.w3.org/2000/svg">
<path fill-rule="evenodd" clip-rule="evenodd" d="M0 1.5C0 2.05 0.45 2.5 1 2.5H17C17.55 2.5 18 2.05 18 1.5C18 0.95 17.55 0.5 17 0.5H1C0.45 0.5 0 0.95 0 1.5ZM8 12.5H10C10.55 12.5 11 12.05 11 11.5C11 10.95 10.55 10.5 10 10.5H8C7.45 10.5 7 10.95 7 11.5C7 12.05 7.45 12.5 8 12.5ZM14 7.5H4C3.45 7.5 3 7.05 3 6.5C3 5.95 3.45 5.5 4 5.5H14C14.55 5.5 15 5.95 15 6.5C15 7.05 14.55 7.5 14 7.5Z" fill="#19C179"/>
</svg>
