<svg width="22" height="22" viewBox="0 0 22 22" fill="none" xmlns="http://www.w3.org/2000/svg">
<path d="M19 10.5H17.5V6.5C17.5 5.4 16.6 4.5 15.5 4.5H11.5V3C11.5 1.62 10.38 0.5 9 0.5C7.62 0.5 6.5 1.62 6.5 3V4.5H2.5C1.4 4.5 0.51 5.4 0.51 6.5V10.3H2C3.49 10.3 4.7 11.51 4.7 13C4.7 14.49 3.49 15.7 2 15.7H0.5V19.5C0.5 20.6 1.4 21.5 2.5 21.5H6.3V20C6.3 18.51 7.51 17.3 9 17.3C10.49 17.3 11.7 18.51 11.7 20V21.5H15.5C16.6 21.5 17.5 20.6 17.5 19.5V15.5H19C20.38 15.5 21.5 14.38 21.5 13C21.5 11.62 20.38 10.5 19 10.5Z" fill="#19C179"/>
</svg>
