<svg width="10" height="11" viewBox="0 0 10 11" fill="none" xmlns="http://www.w3.org/2000/svg">
<path d="M9.0026 6.16536H5.66927V9.4987C5.66927 9.86537 5.36927 10.1654 5.0026 10.1654C4.63594 10.1654 4.33594 9.86537 4.33594 9.4987V6.16536H1.0026C0.635938 6.16536 0.335938 5.86536 0.335938 5.4987C0.335938 5.13203 0.635938 4.83203 1.0026 4.83203H4.33594V1.4987C4.33594 1.13203 4.63594 0.832031 5.0026 0.832031C5.36927 0.832031 5.66927 1.13203 5.66927 1.4987V4.83203H9.0026C9.36927 4.83203 9.66927 5.13203 9.66927 5.4987C9.66927 5.86536 9.36927 6.16536 9.0026 6.16536Z" fill="white"/>
</svg>
