<svg width="28" height="28" viewBox="0 0 28 28" fill="none" xmlns="http://www.w3.org/2000/svg">
<path fill-rule="evenodd" clip-rule="evenodd" d="M3.33073 0.667969H24.6641C26.1307 0.667969 27.3307 1.86797 27.3307 3.33464V19.3346C27.3307 20.8013 26.1307 22.0013 24.6641 22.0013H5.9974L0.664062 27.3346L0.677396 3.33464C0.677396 1.86797 1.86406 0.667969 3.33073 0.667969ZM20.6641 10.0013H7.33073C6.5974 10.0013 5.9974 10.6013 5.9974 11.3346C5.9974 12.068 6.5974 12.668 7.33073 12.668H20.6641C21.3974 12.668 21.9974 12.068 21.9974 11.3346C21.9974 10.6013 21.3974 10.0013 20.6641 10.0013ZM15.3307 16.668H7.33073C6.5974 16.668 5.9974 16.068 5.9974 15.3346C5.9974 14.6013 6.5974 14.0013 7.33073 14.0013H15.3307C16.0641 14.0013 16.6641 14.6013 16.6641 15.3346C16.6641 16.068 16.0641 16.668 15.3307 16.668ZM7.33073 8.66797H20.6641C21.3974 8.66797 21.9974 8.06797 21.9974 7.33464C21.9974 6.6013 21.3974 6.0013 20.6641 6.0013H7.33073C6.5974 6.0013 5.9974 6.6013 5.9974 7.33464C5.9974 8.06797 6.5974 8.66797 7.33073 8.66797Z" fill="#19C179"/>
</svg>
