<svg width="10" height="12" viewBox="0 0 10 12" fill="none" xmlns="http://www.w3.org/2000/svg">
<path fill-rule="evenodd" clip-rule="evenodd" d="M6.8626 0.193333L7.33594 0.666667H9.0026C9.36927 0.666667 9.66927 0.966667 9.66927 1.33333C9.66927 1.7 9.36927 2 9.0026 2H1.0026C0.635937 2 0.335938 1.7 0.335938 1.33333C0.335938 0.966667 0.635937 0.666667 1.0026 0.666667H2.66927L3.1426 0.193333C3.2626 0.0733333 3.43594 0 3.60927 0H6.39594C6.56927 0 6.7426 0.0733333 6.8626 0.193333ZM1.00071 10.6655C1.00071 11.3988 1.60071 11.9988 2.33404 11.9988H7.66738C8.40071 11.9988 9.00071 11.3988 9.00071 10.6655V3.99882C9.00071 3.26548 8.40071 2.66548 7.66738 2.66548H2.33404C1.60071 2.66548 1.00071 3.26548 1.00071 3.99882V10.6655ZM3.00331 4.00142H7.00331C7.36998 4.00142 7.66998 4.30142 7.66998 4.66809V10.0014C7.66998 10.3681 7.36998 10.6681 7.00331 10.6681H3.00331C2.63665 10.6681 2.33665 10.3681 2.33665 10.0014V4.66809C2.33665 4.30142 2.63665 4.00142 3.00331 4.00142Z" fill="#19C179"/>
</svg>
