<svg width="60" height="60" viewBox="0 0 60 60" fill="none" xmlns="http://www.w3.org/2000/svg">
<path d="M26.6402 37.9173H22.5199L25.095 22.0914H29.2158L26.6402 37.9173ZM19.0536 22.0914L15.1255 32.9766L14.6607 30.6326L14.6611 30.6334L13.2747 23.5163C13.2747 23.5163 13.107 22.0914 11.3201 22.0914H4.8262L4.75 22.3594C4.75 22.3594 6.73586 22.7725 9.05997 24.1683L12.6397 37.9177H16.9327L23.488 22.0914H19.0536ZM51.462 37.9173H55.2453L51.9467 22.091H48.6345C47.105 22.091 46.7325 23.2704 46.7325 23.2704L40.5874 37.9173H44.8825L45.7415 35.5665H50.9794L51.462 37.9173ZM46.9281 32.3191L49.093 26.3967L50.3109 32.3191H46.9281ZM40.9095 25.8972L41.4975 22.4986C41.4975 22.4986 39.6831 21.8086 37.7917 21.8086C35.747 21.8086 30.8913 22.7023 30.8913 27.0478C30.8913 31.1363 36.5902 31.1871 36.5902 33.3347C36.5902 35.4823 31.4785 35.0975 29.7915 33.7432L29.1789 37.2967C29.1789 37.2967 31.0187 38.1904 33.8297 38.1904C36.6415 38.1904 40.8833 36.7345 40.8833 32.7721C40.8833 28.6573 35.1331 28.2742 35.1331 26.4852C35.1335 24.6957 39.1463 24.9256 40.9095 25.8972Z" fill="#2566AF"/>
<path d="M14.6611 30.6358L13.2747 23.5187C13.2747 23.5187 13.107 22.0938 11.3201 22.0938H4.8262L4.75 22.3617C4.75 22.3617 7.87124 23.0086 10.8651 25.4322C13.7276 27.7486 14.6611 30.6358 14.6611 30.6358Z" fill="#E6A540"/>
</svg>
